<svg width="566" height="500" viewBox="0 0 566 500" fill="none" xmlns="http://www.w3.org/2000/svg">
<g clip-path="url(#clip0_1_22)">
<path d="M203.777 397.476L161.913 408.457C151.444 411.217 140.273 410.326 130.854 405.978C121.435 401.631 114.536 394.183 111.671 385.269L49.4933 184.557L258.24 129.85C258.348 129.805 258.435 129.729 258.485 129.634C258.535 129.54 258.545 129.435 258.511 129.337C258.478 129.24 258.404 129.158 258.304 129.106C258.204 129.054 258.084 129.036 257.966 129.055L49.2485 183.781L46.4431 174.716C43.5828 165.792 44.9998 156.132 50.3828 147.859C55.7657 139.586 64.6738 133.379 75.1483 130.601L374.309 52.209C379.498 50.8196 384.918 50.3168 390.26 50.7294C395.602 51.142 400.759 52.4619 405.437 54.6133C410.114 56.7647 414.22 59.7053 417.517 63.2662C420.814 66.8271 423.239 70.9382 424.651 75.3636L427.53 84.6209L284.444 122.128C284.314 122.142 284.195 122.201 284.112 122.29C284.029 122.379 283.99 122.491 284.003 122.602C284.015 122.714 284.079 122.814 284.18 122.882C284.28 122.951 284.41 122.981 284.539 122.966C284.797 122.937 285.157 122.895 427.701 85.4282L455.872 176.419L456.212 174.146L425.449 75.0492C422.513 65.935 415.447 58.3246 405.805 53.8921C396.163 49.4595 384.736 48.5679 374.036 51.4134L74.9059 129.847C64.1954 132.69 55.0854 139.036 49.5739 147.493C44.0624 155.949 42.5995 165.826 45.506 174.957L110.685 385.538C113.618 394.662 120.679 402.285 130.32 406.737C139.961 411.188 151.394 412.104 162.111 409.284L203.976 398.302C204.104 398.276 204.217 398.207 204.289 398.111C204.361 398.014 204.387 397.899 204.361 397.789C204.334 397.68 204.258 397.585 204.149 397.526C204.039 397.467 203.906 397.449 203.777 397.476V397.476Z" fill="#4524E4"/>
<path d="M490.719 285.731L457.36 178.037L457.019 180.31L489.792 286.06C492.628 294.98 491.195 304.628 485.807 312.887C480.42 321.145 471.517 327.34 461.053 330.112L218.709 393.54C218.603 393.584 218.517 393.659 218.467 393.751C218.417 393.843 218.406 393.946 218.436 394.042C218.465 394.137 218.534 394.22 218.629 394.274C218.725 394.329 218.84 394.352 218.956 394.339L461.314 330.797C472.01 327.95 481.107 321.61 486.618 313.166C492.128 304.721 493.602 294.857 490.719 285.731V285.731Z" fill="#4524E4"/>
<path d="M448.33 227.596L455.648 177.428L419.057 182.759L407.057 194.583C411.767 194.898 416.398 195.69 420.855 196.943C422.735 197.396 424.496 198.133 426.057 199.121C428.287 200.856 417.235 199.255 411.878 199.374C412.984 199.755 414.016 200.269 414.946 200.901C416.461 202.069 410.467 200.942 405.106 200.793C404.082 200.686 403.038 200.73 402.019 200.922C407.389 202.298 415.663 205.132 417.868 207.785C420.529 211.012 408.163 205.428 400.652 206.082C405.629 207.437 411.087 209.362 413.31 212.17C416.336 215.847 406.297 209.64 395.299 210.58C406.391 214.813 411.867 218.724 396.316 214.933C393.471 214.187 390.481 213.87 387.477 213.996L360.295 240.822C454.939 226.799 448.286 227.892 448.33 227.596Z" fill="#4524E4"/>
<path d="M462.64 142.021L450.247 226.574L499.168 170.905L511.548 86.4659L462.64 142.021Z" fill="#4524E4"/>
<path d="M215.642 300.046C211.17 305.382 204.484 309.048 197.048 310.243C189.612 311.437 182.031 310.064 175.964 306.422L123.561 274.788C127.932 260.83 138.137 248.595 152.183 240.469L187.034 261.501C203.416 211.953 226.184 205.65 233.024 199.329C249.015 207.674 256.622 210.606 276.431 211.499C276.253 252.944 284.211 300.144 279.765 327.932C278.704 334.472 275.782 340.739 271.26 346.172L240.713 382.811C224.895 378.941 211.148 370.705 201.544 359.344L230.527 324.761L233.293 278.797C289.165 211.836 270.838 233.787 215.642 300.046Z" fill="#050505"/>
<path d="M426.807 198.611C425.16 197.586 423.309 196.821 421.336 196.352C414.161 194.243 412.661 194.346 341.663 187.801L320.548 176.13C320.906 174.011 320.601 172.705 319.615 172.281C319.34 172.156 320.791 172.996 272.015 143.452C270.531 138.198 270.472 132.679 271.845 127.317C286.085 129.895 288.504 119.096 284.255 107.201C284.91 106.734 285.442 106.15 285.81 105.493C286.179 104.836 286.375 104.121 286.385 103.401C286.396 102.681 286.22 101.974 285.87 101.33C285.52 100.687 285.005 100.124 284.363 99.6815C285.146 99.133 285.754 98.4211 286.125 97.6179C286.496 96.8147 286.617 95.9488 286.477 95.1076C286.336 94.2665 285.938 93.48 285.323 92.8279C284.708 92.1757 283.898 91.681 282.975 91.3937C283.515 90.6796 283.836 89.864 283.907 89.0259C283.979 88.1879 283.798 87.3556 283.383 86.6098C282.968 85.864 282.332 85.2297 281.537 84.7685C280.742 84.3072 279.815 84.0346 278.846 83.9769C279.067 83.1819 279.053 82.3587 278.806 81.5834C278.559 80.8081 278.087 80.1057 277.433 79.5411C276.779 78.9765 275.964 78.5679 275.064 78.3531C274.164 78.1383 273.208 78.1241 272.283 78.312C272.194 77.5107 271.873 76.7481 271.349 76.0936C270.825 75.4391 270.115 74.9135 269.282 74.5643C268.45 74.2152 267.522 74.0537 266.584 74.0944C265.645 74.1352 264.724 74.3769 263.906 74.7977C263.539 74.0344 262.947 73.3721 262.186 72.8746C261.424 72.3771 260.52 72.0612 259.56 71.9573C258.601 71.8534 257.617 71.9651 256.705 72.2814C255.793 72.5978 254.982 73.1083 254.352 73.7637C253.701 73.1049 252.857 72.6078 251.903 72.3204C250.948 72.0329 249.915 71.9649 248.903 72.1229C247.891 72.2809 246.935 72.6595 246.126 73.2222C245.317 73.7848 244.684 74.5126 244.286 75.335C243.056 74.7098 241.578 74.5233 240.156 74.8143C238.733 75.1052 237.477 75.8512 236.644 76.8984C236.323 75.9944 235.753 75.1769 234.981 74.5138C234.21 73.8507 233.259 73.361 232.208 73.0853C231.158 72.8097 230.037 72.756 228.939 72.9288C227.841 73.1015 226.798 73.4958 225.896 74.0788C225.129 73.1263 224.058 72.389 222.805 71.9519C221.552 71.5149 220.169 71.3959 218.814 71.6085C217.46 71.8212 216.19 72.357 215.15 73.1541C214.11 73.9511 213.343 74.9771 212.937 76.1138C211.714 75.7543 210.386 75.7047 209.106 75.9708C207.826 76.2368 206.648 76.8077 205.708 77.6169C204.768 78.4261 204.105 79.4404 203.796 80.5419C203.488 81.6434 203.546 82.7869 203.964 83.8393C202.698 84.2067 201.568 84.875 200.707 85.7651C199.847 86.6552 199.292 87.73 199.108 88.8624C198.925 89.9948 199.12 91.1375 199.672 92.1554C200.223 93.1733 201.107 94.0239 202.219 94.6066C201.326 95.4831 200.738 96.5545 200.526 97.6916C200.313 98.8288 200.485 99.9831 201.022 101.015C201.558 102.048 202.436 102.914 203.549 103.51C204.662 104.106 205.963 104.406 207.294 104.373C207.256 105.502 207.591 106.606 208.26 107.556C208.928 108.507 209.903 109.265 211.072 109.743C212.24 110.22 213.554 110.398 214.86 110.255C216.166 110.112 217.41 109.654 218.45 108.934C219 109.666 219.742 110.274 220.619 110.712C221.495 111.15 222.483 111.407 223.508 111.464C223.435 112.712 223.925 113.92 224.874 114.836C225.823 115.752 227.159 116.305 228.604 116.38C228.393 117.176 228.416 117.998 228.671 118.771C228.926 119.543 229.404 120.242 230.061 120.803C230.719 121.364 231.535 121.768 232.436 121.98C233.336 122.192 234.292 122.205 235.216 122.017C235.308 122.821 235.633 123.586 236.162 124.242C236.69 124.898 237.406 125.425 238.243 125.773C239.081 126.122 240.013 126.282 240.957 126.238C241.9 126.195 242.824 125.95 243.644 125.525C244.015 126.289 244.614 126.951 245.382 127.445C246.149 127.938 247.06 128.248 248.024 128.343C248.988 128.438 249.973 128.315 250.883 127.987C251.793 127.658 252.596 127.135 253.214 126.468C254.593 127.516 256.334 128.154 258.192 128.291C253.666 137.298 244.41 145.972 240.875 154.53C231.68 176.781 236.975 183.216 232.598 199.021C223.551 206.106 202.929 213.17 186.789 260.724L152.57 240.202C152.462 240.137 152.329 240.11 152.196 240.125C152.063 240.14 151.94 240.196 151.849 240.284C148.662 242.125 145.663 244.202 142.885 246.489C125.391 237.31 124.069 237.148 109.489 226.319C109.43 226.272 109.357 226.24 109.277 226.225C109.198 226.211 109.115 226.215 109.036 226.237C82.5711 232.358 52.4619 243.787 39.7603 250.82C39.6725 250.858 39.5995 250.917 39.5515 250.991C39.5034 251.064 39.4826 251.148 39.492 251.231C39.5014 251.313 39.5405 251.39 39.6039 251.451C39.6673 251.512 39.7518 251.553 39.8457 251.57C60.2521 255.757 81.6459 255.937 102.468 252.099L126.513 266.609C125.259 269.043 124.185 271.539 123.298 274.08C123.201 274.341 123.202 274.619 123.301 274.873C123.4 275.127 123.593 275.344 123.85 275.492L175.634 306.727C181.803 310.441 189.517 311.844 197.085 310.63C204.654 309.416 211.458 305.683 216.004 300.251L232.793 280.128L230.039 324.593L201.603 358.712C201.443 358.896 201.356 359.117 201.353 359.343C201.351 359.569 201.434 359.787 201.589 359.964C203.524 362.158 205.599 364.257 207.805 366.25C192.986 385.813 181.518 397.264 181.459 397.896C180.302 411.993 185.191 443.231 191.976 457.026C192.012 457.098 192.071 457.16 192.147 457.204C192.223 457.248 192.313 457.272 192.406 457.273C192.499 457.274 192.592 457.253 192.673 457.211C192.754 457.169 192.82 457.108 192.864 457.036C204.074 436.454 207.565 424.08 212.32 402.446L230.903 380.219C233.85 381.346 236.885 382.306 239.989 383.094C240.22 383.147 240.466 383.138 240.695 383.068C240.925 382.998 241.126 382.87 241.274 382.702L271.641 346.308C276.211 340.82 279.163 334.487 280.229 327.879C284.64 300.251 276.851 252.474 276.9 211.49L280.927 203.368L287.947 207.327C289.039 207.985 291.522 206.674 292.799 205.299L312.869 215.346C317.493 217.557 322.766 218.639 328.136 218.478C328.728 218.41 387.836 213.262 396.153 215.331C399.12 216.27 402.259 216.788 405.451 216.864C406.198 216.779 406.299 216.521 406.407 216.33C406.99 215.035 401.478 212.423 397.284 210.845C406.5 210.734 413.37 214.755 414.437 213.36C414.806 212.938 414.318 212.323 413.944 211.785C411.184 209.189 407.66 207.28 403.72 206.247C409.51 206.726 416.215 209.292 418.171 209.069C418.968 208.978 419.397 208.393 418.553 207.394C416.286 204.658 410.18 202.539 404.936 201.125C408.99 201.244 413.382 201.817 414.952 201.638C416.058 201.512 416.222 200.89 415.534 200.342C415.15 200.053 414.737 199.794 414.299 199.567C418.33 199.711 423.818 200.292 425.928 200.052C427.428 199.948 427.551 199.197 426.807 198.611ZM317.95 172.315C315.061 173.269 311.238 177.928 309.514 180.18L308.479 179.561C308.451 179.318 309.244 176.211 307.523 175.514L277.588 157.363C275.359 153.328 273.619 149.094 272.395 144.727L317.95 172.315ZM258.96 128.852C262.032 122.871 263.201 115.745 258.834 110.813C258.802 110.773 258.762 110.739 258.714 110.714C258.666 110.688 258.612 110.672 258.556 110.666C251.809 109.557 253.746 102.768 258.384 104.809C260.034 105.559 262.165 106.188 262.447 104.547C262.446 103.898 262.705 103.261 263.18 102.743C263.792 103.397 264.601 103.894 265.523 104.184C266.445 104.473 267.448 104.545 268.431 104.393C269.413 104.24 270.341 103.868 271.119 103.314C271.897 102.76 272.498 102.043 272.862 101.238C273.936 101.81 275.218 102.042 276.495 101.897C277.773 101.751 278.969 101.236 279.887 100.437C283.74 106.567 287.881 119.122 282.626 124.48C279.817 127.28 274.849 127.6 267.819 125.385C267.493 125.266 266.893 125.49 267.395 126.237C267.897 126.985 268.486 127.811 270.142 130.214C269.682 133.47 269.731 136.748 270.288 139.962C266.958 145.056 258.866 140.839 253.522 137.404C255.576 134.667 257.394 131.808 258.96 128.852V128.852ZM104.403 252.147C108.186 245.553 112.995 239.411 118.693 233.895C126.175 238.631 133.998 242.962 142.12 246.866C135.73 252.275 130.571 258.659 126.928 265.668L104.403 252.147ZM211.839 401.652C204.22 398.005 197.328 393.367 191.398 387.893C197.685 380.608 203.467 373.469 208.431 366.938C214.68 372.308 221.956 376.719 229.964 379.991L211.839 401.652ZM279.282 327.808C278.246 334.275 275.37 340.476 270.911 345.855L250.569 370.248C235.394 366.099 222.021 358.335 211.963 347.834C232.146 323.638 231.147 324.936 231.147 324.712L232.543 301.495L267.646 238.262C267.682 238.169 267.681 238.069 267.642 237.979C267.603 237.889 267.529 237.815 267.432 237.768C267.335 237.722 267.221 237.706 267.109 237.723C266.997 237.741 266.895 237.791 266.819 237.865L215.227 299.602C210.83 304.849 204.254 308.453 196.941 309.626C189.629 310.798 182.175 309.443 176.212 305.857L135.683 281.428C138.911 274.775 142.969 268.423 147.784 262.487C196.355 287.944 193.1 286.371 193.357 286.342C193.614 286.312 193.02 287.274 231.241 226.01C237.184 223.889 242.632 220.81 247.282 216.943C247.362 216.862 247.405 216.759 247.403 216.654C247.401 216.55 247.354 216.451 247.271 216.377C247.188 216.303 247.075 216.259 246.954 216.254C246.833 216.249 246.712 216.282 246.615 216.348C237.912 223.396 226.775 227.755 215.047 228.704C214.918 228.719 214.798 228.777 214.716 228.866C214.633 228.955 214.593 229.068 214.606 229.179C214.619 229.29 214.682 229.391 214.783 229.459C214.884 229.527 215.013 229.557 215.143 229.542C220.151 229.065 225.089 228.036 229.835 226.483L193.115 285.364L148.367 261.885C152.723 256.666 157.86 251.955 163.637 247.878L186.783 261.82C186.845 261.852 186.916 261.871 186.989 261.874C187.062 261.878 187.136 261.867 187.204 261.842C187.272 261.817 187.333 261.778 187.382 261.729C187.431 261.681 187.465 261.623 187.484 261.561C203.293 214.537 223.327 207.338 233.046 199.751C248.37 207.725 256.21 210.876 275.921 211.825C275.787 252.975 283.673 300.227 279.282 327.808V327.808ZM287.046 205.821L256.201 188.377C256.104 188.324 255.987 188.303 255.87 188.319C255.754 188.334 255.647 188.385 255.567 188.461C255.488 188.537 255.442 188.635 255.438 188.735C255.433 188.836 255.471 188.934 255.544 189.01C274.629 209.18 276.114 210.999 276.114 210.999C256.536 210.079 248.778 206.963 233.565 199.044C237.922 183.064 232.634 176.919 241.767 154.808C244.035 149.321 248.65 143.835 252.905 138.166C258.136 141.525 266.29 145.825 270.434 141.241C271.493 146.5 273.326 151.599 275.89 156.417L257.557 145.367C257.051 145.045 256.478 145.736 256.984 146.058L305.912 175.563C299.359 177.762 285.854 199.254 287.046 205.821V205.821ZM414.686 200.908C412.962 201.105 405.653 200.105 401.593 200.389C399.504 199.894 397.379 199.502 395.229 199.215C395.106 199.216 394.987 199.256 394.894 199.328C394.801 199.4 394.742 199.498 394.727 199.604C394.713 199.709 394.745 199.814 394.817 199.897C394.889 199.981 394.996 200.037 395.116 200.055C399.87 200.362 415.891 204.391 417.982 208.331C416.415 208.153 414.878 207.841 413.393 207.401C409.368 206.184 405.112 205.559 400.8 205.551C397.813 204.73 395.224 204.198 394.218 204.067C394.104 204.063 393.991 204.094 393.897 204.154C393.804 204.214 393.737 204.3 393.708 204.396C393.679 204.492 393.689 204.592 393.737 204.68C393.785 204.768 393.868 204.838 393.971 204.877C399.297 205.857 411.053 208.83 413.504 212.952C411.364 212.704 403.645 209.473 395.38 210.146L393.609 209.476C393.49 209.434 393.355 209.434 393.233 209.477C393.11 209.521 393.012 209.603 392.958 209.707C392.904 209.811 392.9 209.928 392.946 210.031C392.992 210.135 393.084 210.217 393.203 210.26C400.929 213.089 404.938 215.336 405.412 216.064C405.001 216.111 403.251 216.31 396.43 214.562C387.954 212.467 330.498 217.471 328.1 217.7C322.908 217.845 317.813 216.798 313.339 214.667L288.452 202.153C290.476 194.75 298.183 182.543 303.933 177.867L329.534 193.227C329.814 193.396 327.443 193.175 397.157 196.917C402.067 197.453 411.397 198.579 414.686 200.908V200.908ZM412.202 198.778C407.382 197.409 402.393 196.48 397.314 196.006L329.999 192.503L310.415 180.77C311.983 178.577 313.822 176.531 315.898 174.671L341.242 188.675C341.242 188.675 402.026 194.352 405.19 194.662C410.621 195.035 415.968 195.925 421.132 197.314C422.969 197.747 424.691 198.459 426.22 199.415C424.473 199.637 416.259 198.696 412.202 198.778V198.778Z" fill="white"/>
<path d="M327.586 98.1084C325.525 98.3403 323.45 98.0621 321.606 97.3067C319.762 96.5513 318.226 95.3501 317.179 93.8448C316.132 92.3396 315.618 90.5929 315.697 88.8109C315.776 87.0288 316.445 85.2856 317.625 83.7868C318.805 82.288 320.447 81.096 322.358 80.3515C324.268 79.6069 326.367 79.3408 328.407 79.5846C330.448 79.8283 332.344 80.5717 333.873 81.7271C335.402 82.8824 336.5 84.4017 337.037 86.1056C337.446 87.4046 337.518 88.7747 337.248 90.1204C336.978 91.4662 336.372 92.7552 335.472 93.8978C334.573 95.0404 333.401 96.009 332.039 96.7362C330.677 97.4634 329.158 97.9317 327.586 98.1084V98.1084ZM318.268 84.9596C317.481 86.1583 317.043 87.4954 316.993 88.8524C316.942 90.2094 317.281 91.5446 317.98 92.7396C318.678 93.9346 319.714 94.9527 320.996 95.7038C322.278 96.4549 323.767 96.9157 325.33 97.0456C326.894 97.1755 328.484 96.9703 329.96 96.4484C331.435 95.9264 332.751 95.1037 333.791 94.0531C334.831 93.0024 335.563 91.7562 335.921 90.4249C336.28 89.0935 336.255 87.7179 335.847 86.4199C335.35 84.8574 334.319 83.4734 332.886 82.4435C331.452 81.4136 329.68 80.7842 327.795 80.6351C325.91 80.4861 323.996 80.8241 322.297 81.6063C320.597 82.3885 319.189 83.5797 318.25 85.0287L318.268 84.9596Z" fill="#4524E4"/>
<path d="M354.828 91.0274C352.767 91.2593 350.692 90.9811 348.848 90.2257C347.004 89.4703 345.468 88.2691 344.421 86.7638C343.374 85.2586 342.86 83.5119 342.939 81.7299C343.018 79.9478 343.687 78.2046 344.867 76.7058C346.047 75.207 347.689 74.015 349.6 73.2705C351.51 72.5259 353.609 72.2598 355.649 72.5036C357.69 72.7473 359.586 73.4907 361.115 74.6461C362.644 75.8015 363.741 77.3207 364.279 79.0246C364.693 80.3236 364.768 81.6948 364.5 83.042C364.232 84.3892 363.626 85.6799 362.726 86.8235C361.826 87.9671 360.652 88.9359 359.288 89.6621C357.923 90.3884 356.401 90.8543 354.828 91.0274V91.0274ZM345.51 77.8786C344.723 79.0774 344.285 80.4144 344.234 81.7714C344.184 83.1285 344.523 84.4636 345.222 85.6586C345.92 86.8536 346.956 87.8717 348.238 88.6228C349.52 89.3739 351.009 89.8347 352.572 89.9646C354.136 90.0945 355.726 89.8894 357.202 89.3674C358.677 88.8454 359.993 88.0227 361.033 86.9721C362.073 85.9214 362.805 84.6753 363.163 83.3439C363.522 82.0125 363.497 80.6369 363.089 79.3389C362.603 77.77 361.58 76.3774 360.15 75.3385C358.721 74.2995 356.949 73.6613 355.061 73.505C353.173 73.3487 351.254 73.6814 349.549 74.4608C347.843 75.2402 346.428 76.431 345.484 77.8815L345.51 77.8786Z" fill="#4524E4"/>
<path d="M391.976 71.8247C391.421 70.057 390.263 68.489 388.649 67.3189C387.035 66.1488 385.038 65.4291 382.909 65.2508C380.78 65.0725 378.615 65.4436 376.688 66.3172C374.762 67.1908 373.16 68.5277 372.085 70.1588C371.01 71.79 370.51 73.6421 370.649 75.4811C370.788 77.3201 371.559 79.0634 372.865 80.4906C374.171 81.9177 375.953 82.9647 377.986 83.4991C380.019 84.0335 382.211 84.0313 384.286 83.4928C385.666 83.1377 386.961 82.5536 388.095 81.7742C389.229 80.9947 390.181 80.0353 390.896 78.951C391.61 77.8667 392.074 76.6789 392.259 75.4559C392.445 74.2329 392.348 72.9989 391.976 71.8247V71.8247Z" fill="#4524E4"/>
<path d="M103.126 92.9152L89.3748 86.617L97.189 74.6666C97.2256 74.5737 97.2243 74.4738 97.1853 74.3838C97.1463 74.2939 97.072 74.2193 96.9749 74.1727C96.8778 74.126 96.7638 74.1102 96.6521 74.1278C96.5404 74.1454 96.4379 74.1954 96.3617 74.2693L88.56 86.33L74.8087 80.0318C74.2563 79.7596 73.7681 80.5079 74.3204 80.7801L88.0693 87.0562L80.2677 99.1169C80.2233 99.1847 80.2009 99.261 80.2027 99.3376C80.2045 99.4141 80.2305 99.4881 80.2779 99.5515C80.3253 99.615 80.3923 99.6656 80.4718 99.6978C80.5513 99.7301 80.6402 99.7428 80.729 99.7347C81.115 99.6907 80.586 100.31 88.9424 87.6271C103.418 94.3343 102.704 94.0135 102.858 93.9959C103.024 94.0215 103.196 93.9891 103.338 93.9059C103.48 93.8227 103.58 93.6954 103.616 93.5521C103.651 93.4088 103.62 93.2612 103.528 93.1417C103.436 93.0223 103.292 92.9408 103.126 92.9152V92.9152Z" fill="#4524E4"/>
<path d="M110.372 301.561C110.009 301.357 114.066 299.666 49.6273 325.754C49.5512 325.788 49.4859 325.838 49.4379 325.9C49.3899 325.961 49.3607 326.032 49.3533 326.105C49.3459 326.177 49.3604 326.25 49.3954 326.315C49.4305 326.381 49.4849 326.436 49.5533 326.477L68.7627 337.896L47.8069 362.627C47.7654 362.671 47.7343 362.722 47.7152 362.776C47.6962 362.83 47.6896 362.886 47.6959 362.941C47.7022 362.997 47.7213 363.05 47.752 363.098C47.7827 363.147 47.8244 363.189 47.8747 363.223C62.7411 371.986 61.8598 371.572 62.0657 371.549C62.2716 371.525 60.9631 373.082 83.3567 346.556L102.515 357.98C102.584 358.021 102.664 358.045 102.748 358.05C102.833 358.055 102.918 358.041 102.996 358.01C103.074 357.978 103.141 357.931 103.192 357.871C103.243 357.811 103.276 357.742 103.287 357.669C111.168 298.253 110.71 301.791 110.372 301.561ZM82.8827 345.828L61.9269 370.559L48.8482 362.844C71.4018 336.121 69.9327 338.098 69.8617 337.704C69.7908 337.31 70.9614 338.204 50.7992 326.201L87.516 311.449L101.392 356.365L83.5468 345.708C83.4421 345.651 83.315 345.633 83.1915 345.655C83.0681 345.677 82.9576 345.739 82.8827 345.828V345.828Z" fill="#4524E4"/>
<path d="M368.822 321.382C368.565 321.412 368.59 321.409 329.693 315.652C329.608 315.626 329.534 315.581 329.478 315.52C329.423 315.459 329.389 315.385 329.38 315.308C329.371 315.23 329.388 315.15 329.428 315.079C329.468 315.007 329.53 314.946 329.608 314.902L359.279 292.306C359.379 292.253 359.497 292.232 359.611 292.246C359.725 292.261 359.828 292.309 359.902 292.384C359.976 292.458 360.016 292.553 360.015 292.653C360.014 292.753 359.972 292.85 359.897 292.928L331.123 314.93L368.86 320.574C368.922 320.574 368.982 320.585 369.038 320.605C369.094 320.626 369.145 320.656 369.186 320.694C369.228 320.731 369.261 320.776 369.282 320.825C369.303 320.875 369.313 320.927 369.31 320.98C369.308 321.033 369.293 321.086 369.267 321.135C369.242 321.184 369.205 321.228 369.159 321.266C369.114 321.303 369.061 321.332 369.003 321.352C368.945 321.372 368.884 321.383 368.822 321.382Z" fill="#4524E4"/>
<path d="M399.055 312.866L427.708 289.805L390.058 285.157C389.986 285.16 389.915 285.149 389.849 285.125C389.784 285.101 389.726 285.065 389.679 285.019C389.632 284.973 389.598 284.919 389.579 284.859C389.561 284.8 389.557 284.737 389.57 284.676C389.582 284.615 389.61 284.556 389.651 284.504C389.693 284.452 389.747 284.408 389.809 284.375C389.872 284.342 389.942 284.322 390.014 284.315C390.085 284.307 390.158 284.314 390.225 284.333C418.474 287.461 426.279 288.47 428.415 288.92C429.377 289.123 429.629 289.273 428.78 290.062C427.194 291.472 421.27 296.213 399.776 313.476C399.678 313.561 399.547 313.611 399.41 313.614C399.274 313.617 399.143 313.573 399.048 313.492C398.952 313.411 398.899 313.3 398.9 313.182C398.902 313.065 398.957 312.951 399.055 312.866V312.866Z" fill="#4524E4"/>
<path d="M375.153 332.794L382.393 273.473C382.405 273.363 382.468 273.259 382.567 273.185C382.666 273.111 382.793 273.073 382.921 273.078C383.052 273.09 383.171 273.144 383.253 273.23C383.336 273.316 383.376 273.428 383.365 273.541L376.125 332.861C376.101 332.966 376.032 333.06 375.932 333.124C375.833 333.189 375.71 333.221 375.588 333.212C375.466 333.204 375.353 333.156 375.273 333.078C375.192 333.001 375.15 332.899 375.153 332.794Z" fill="#4524E4"/>
</g>
<defs>
<clipPath id="clip0_1_22">
<rect width="518" height="444" fill="white" transform="translate(0.45488 58.6746) rotate(-6.5)"/>
</clipPath>
</defs>
</svg>
